# xmcd
#
# Track frame offsets: 
#        150
#        11982
#        25002
#        38147
#        51110
#        61935
#        73682
#        86907
#        100047
#        115392
#        127382
#        140545
#        156225
#        173345
#        189480
#        205977
#        223100
#        239165
#        255347
#        270607
#        285925
#        304302
#
# Disc length: 4256 seconds
#
# Revision: 1
# Processed by: cddbd v1.5.2PL0 Copyright (c) Steve Scherf et al.
# Submitted via: ExactAudioCopyFreeDBPlugin 1.0
#
DISCID=48109e16
DTITLE=Various Artist - OCD-28009 Priceless Jewels: The Best of Motown Singer
DTITLE=s
DYEAR=1996
DGENRE=Soul
TTITLE0=Barret Strong - Money
TTITLE1=Henry Lumpkin - Mojo Hannah
TTITLE2=Mary Wells - Bye Bye Baby
TTITLE3=Mary Wells - My Guy
TTITLE4=Eddie Holland - Jamie
TTITLE5=Marv Johnson - I'll Pick A Rose For My Rose
TTITLE6=Brenda Holloway - Every Little Bit Hurts
TTITLE7=Brenda Holloway - You've Made Me So Very Happy
TTITLE8=Edwin Star - War
TTITLE9=Shorty Long - Here 'Comes The Judge
TTITLE10=Jimmy Ruffin - What Becomes Of The Brokenhearted
TTITLE11=David Ruffin - My Whole World Ended
TTITLE12=Jimmy and Daved Ruffin - Stand By Me
TTITLE13=Eddie Kendricks - Keep On Truckin'(Pt.1)
TTITLE14=Thelma Houston - Don't Leave Me This Way
TTITLE15=G.C.Cameron - Let Me Down Easy
TTITLE16=Willie Hutch - Love Power
TTITLE17=Jermaine Jackson - Let's Get Serious
TTITLE18=Michael Jackson - Got To Be There
TTITLE19=Rick James - Super Freak
TTITLE20=Smokey Robinson - Being With You
TTITLE21=Lionel Richie - Truly
EXTD=
EXTT0=
EXTT1=
EXTT2=
EXTT3=
EXTT4=
EXTT5=
EXTT6=
EXTT7=
EXTT8=
EXTT9=
EXTT10=
EXTT11=
EXTT12=
EXTT13=
EXTT14=
EXTT15=
EXTT16=
EXTT17=
EXTT18=
EXTT19=
EXTT20=
EXTT21=
PLAYORDER=
